D:\school\WTK\thesis\model\3dpredictsim\Results\batch_windlass\Pog_s1_tmt_aCst_d05_k800_WL30_ig24_act_TTC_GRF.mot
nRows=15
nColumns=19

name D:\school\WTK\thesis\model\3dpredictsim\Results\batch_windlass\Pog_s1_tmt_aCst_d05_k800_WL30_ig24_act_TTC_GRF.mot
datacolumns 19
datarows 15
range 0.0000000000 0.1708659409
endheader
time 	ground_force_vx	ground_force_vy	ground_force_vz	ground_force_px	ground_force_py	ground_force_pz	1_ground_force_vx	1_ground_force_vy	1_ground_force_vz	1_ground_force_px	1_ground_force_py	1_ground_force_pz	ground_torque_x	ground_torque_y	ground_torque_z	1_ground_torque_x	1_ground_torque_y	1_ground_torque_z
        0.0000000000	      -54.4298831299	       37.9514917786	        8.1870359637	        0.1611183447	        0.0000000000	        0.0587167114	       82.4324748906	      364.6214100688	       -3.4808059980	       -0.3679706875	        0.0000000000	       -0.0334364360	        0.0000000000	        0.0000000000	        0.0000000000	        0.0000000000	        0.0000000000	        0.0000000000	
        0.0122047101	     -122.3290262154	      103.5544107054	       23.2172732030	        0.1748029367	        0.0000000000	        0.0572551193	       50.1084848830	      261.7844782527	       -9.4468703550	       -0.3572104545	        0.0000000000	       -0.0287430008	        0.0000000000	        0.0000000000	        0.0000000000	        0.0000000000	        0.0000000000	        0.0000000000	
        0.0244094201	     -128.3138823821	      265.3465202710	       29.4216069928	        0.1884121079	        0.0000000000	        0.0572838060	       33.8217241412	      208.4149367483	      -16.2180562538	       -0.3518547736	        0.0000000000	       -0.0262401965	        0.0000000000	        0.0000000000	        0.0000000000	        0.0000000000	        0.0000000000	        0.0000000000	
        0.0366141302	     -102.4866316768	      619.5010681304	      -12.8012107196	        0.2030508963	        0.0000000000	        0.0591729197	       30.2089100349	      164.6250304774	      -13.4581133180	       -0.3517118570	        0.0000000000	       -0.0261694366	        0.0000000000	        0.0000000000	        0.0000000000	        0.0000000000	        0.0000000000	        0.0000000000	
        0.0488188403	     -128.9275558691	      855.2756857238	      -26.0787989854	        0.2109462319	        0.0000000000	        0.0602886001	       16.7353748161	      105.9670265065	      -12.1855048563	       -0.3518821599	        0.0000000000	       -0.0263306862	        0.0000000000	        0.0000000000	        0.0000000000	        0.0000000000	        0.0000000000	        0.0000000000	
        0.0610235503	     -157.4458891702	      939.7139916249	      -29.3959529990	        0.2191840354	        0.0000000000	        0.0603229276	       -2.1037095548	       38.2729666534	       -7.0637024449	       -0.3533565320	        0.0000000000	       -0.0266048821	        0.0000000000	        0.0000000000	        0.0000000000	        0.0000000000	        0.0000000000	        0.0000000000	
        0.0732282604	     -161.2151341409	      948.9157039498	      -27.0090766463	        0.2286994911	        0.0000000000	        0.0595487193	       -0.4067642238	        0.4116295709	        0.0139162462	        0.0000000000	        0.0000000000	        0.0000000000	        0.0000000000	        0.0000000000	        0.0000000000	        0.0000000000	        0.0000000000	        0.0000000000	
        0.0854329705	     -147.2195793537	      884.5117528465	      -23.2787991522	        0.2363741613	        0.0000000000	        0.0586214158	       -0.9423430959	        0.8042724031	        0.0833227455	        0.0000000000	        0.0000000000	        0.0000000000	        0.0000000000	        0.0000000000	        0.0000000000	        0.0000000000	        0.0000000000	        0.0000000000	
        0.0976376805	     -125.0227153237	      807.7320527969	      -20.4674316063	        0.2407329967	        0.0000000000	        0.0580132559	       -0.8926017438	        0.6598094047	        0.0847378542	        0.0000000000	        0.0000000000	        0.0000000000	        0.0000000000	        0.0000000000	        0.0000000000	        0.0000000000	        0.0000000000	        0.0000000000	
        0.1098423906	     -106.5508948910	      753.2662112925	      -18.2012172872	        0.2445919178	        0.0000000000	        0.0576538895	       -0.4140856824	        0.2764857953	        0.0370138098	        0.0000000000	        0.0000000000	        0.0000000000	        0.0000000000	        0.0000000000	        0.0000000000	        0.0000000000	        0.0000000000	        0.0000000000	
        0.1220471007	      -91.3506033988	      715.2801835481	      -17.1868475590	        0.2479698661	        0.0000000000	        0.0574053400	       -0.0771927120	        0.0480218758	        0.0056623234	        0.0000000000	        0.0000000000	        0.0000000000	        0.0000000000	        0.0000000000	        0.0000000000	        0.0000000000	        0.0000000000	        0.0000000000	
        0.1342518107	      -78.8297250111	      686.7250673300	      -18.3033104367	        0.2511974700	        0.0000000000	        0.0572086793	       -0.1758267434	        0.1045688590	        0.0103369917	        0.0000000000	        0.0000000000	        0.0000000000	        0.0000000000	        0.0000000000	        0.0000000000	        0.0000000000	        0.0000000000	        0.0000000000	
        0.1464565208	      -66.9498614347	      663.2739009720	      -19.8490402891	        0.2544806427	        0.0000000000	        0.0570583260	       -0.1256555694	        0.0712068523	        0.0068148507	        0.0000000000	        0.0000000000	        0.0000000000	        0.0000000000	        0.0000000000	        0.0000000000	        0.0000000000	        0.0000000000	        0.0000000000	
        0.1586612309	      -56.2631276909	      642.1419785285	      -20.0240199971	        0.2580218326	        0.0000000000	        0.0569412566	       -0.0654508113	        0.0349662746	        0.0037617247	        0.0000000000	        0.0000000000	        0.0000000000	        0.0000000000	        0.0000000000	        0.0000000000	        0.0000000000	        0.0000000000	        0.0000000000	
        0.1708659409	      -46.5753848240	      624.8221714427	      -20.4319978560	        0.2624199891	        0.0000000000	        0.0567555370	       -0.0370641148	        0.0187917962	        0.0022101728	        0.0000000000	        0.0000000000	        0.0000000000	        0.0000000000	        0.0000000000	        0.0000000000	        0.0000000000	        0.0000000000	        0.0000000000	
